<svg width="1423" height="1295" viewBox="0 0 1423 1295" fill="none" xmlns="http://www.w3.org/2000/svg">
<path d="M777.819 915.282C723.682 907.131 711.21 854.435 712.884 821.32C736.65 829.712 794.858 838.97 826.959 809.778C827.648 809.151 828.556 808.843 829.475 808.999C870.763 815.996 948.471 854.523 981.591 940.752C998.811 985.582 976.331 1004.47 957.551 980.202C941.051 959.162 903.239 918.082 884.01 922.102C886.043 949.722 882.233 1006.15 859.974 1023.96C847.417 1034 833.187 1022.16 834.861 1011.76C838.568 977.572 830.196 923.172 777.819 915.282Z" fill="black"/>
<path d="M819.791 712.667C845.159 667.591 828.283 638.625 816.674 629.776C817.683 664.132 793.092 681.884 780.67 686.465L782.645 698.47C786.134 694.995 808.863 706.487 819.791 712.667Z" fill="black"/>
<path d="M671.991 686.466C687.958 701.971 701.37 701.94 707.663 702.719C728.805 686.102 742.111 690.44 746.122 694.686L744.921 678.565C733.363 670.023 725.207 654.974 722.573 648.517C719.509 651.052 715.57 650.032 713.983 649.205C711.947 647.847 708.068 642.78 708.841 633.37C709.614 623.96 716.424 626.562 719.733 629.04L736.376 631.017C735.844 615.439 745.498 610.348 750.392 609.749C746.646 601.082 753.556 597.383 757.186 595.94C762.302 602.351 769.069 604.985 771.929 606.207C801.089 614.176 819.052 603.896 827.433 590.914C836.52 577.815 835.41 546.812 810.191 538.994C801.953 535.72 782.368 532.896 769.936 547.79C733.965 534.125 716.458 571.924 711.619 585.666L706.063 598.184C658.889 607.683 657.243 651.179 662.317 671.739C669.085 664.739 671.586 678.64 671.991 686.466Z" fill="black"/>
<path d="M826.314 810.214C824.04 805.074 818.08 795.128 823.438 779.31C823.88 777.038 824.735 774.813 825.301 772.444C836.478 725.779 798.096 707.165 791.353 701.322" stroke="black" stroke-width="5" stroke-linecap="round"/>
<path d="M823.856 778.898C836.588 783.491 858.43 786.615 883.457 774.088C908.484 761.562 905.388 683.423 897.708 674.324C891.563 667.044 887.435 665.012 883.665 668.835C864.795 690.075 862.252 703.776 856.753 726.337C854.821 734.263 852.495 738.469 848.709 735.387C839.312 724.561 813.758 701.782 786.717 697.281" stroke="black" stroke-width="5" stroke-linecap="round"/>
<path d="M791.252 700.697C789.728 699.425 788.254 698.658 786.885 698.246C783.452 697.212 780.687 698.41 779.474 699.441C774.273 703.084 760.349 707.362 746.254 695.331C736.543 688.799 713.162 685.28 697.323 723.454" stroke="black" stroke-width="5" stroke-linecap="round"/>
<path d="M701.324 752.289C696.672 738.245 683.648 708.865 668.774 703.696C653.9 698.527 647.817 710.713 646.635 717.452C643.899 732.323 643.992 768.153 666.257 792.502C694.089 822.939 727.405 805.198 735.075 766.128" stroke="black" stroke-width="5" stroke-linecap="round"/>
<path d="M634.099 669.098C631.781 668.751 627.876 670.39 630.81 679.722C634.477 691.386 642.679 700.157 649.731 706.23" stroke="black" stroke-width="5" stroke-linecap="round"/>
<path d="M639.946 664.075C637.913 662.974 633.86 662.484 633.916 669.333C634.03 671.394 634.778 675.897 636.859 677.432" stroke="black" stroke-width="5" stroke-linecap="round"/>
<path d="M649.441 678.391L647.432 661.093C647.251 659.973 646.106 657.706 642.971 657.599C639.051 657.465 640.274 662.631 640.135 664.185C640.024 665.429 641.052 670.678 641.58 673.146" stroke="black" stroke-width="5" stroke-linecap="round"/>
<path d="M657.778 682.026L654.731 668.274C654.415 666.313 652.597 662.658 647.856 663.724" stroke="black" stroke-width="5" stroke-linecap="round"/>
<path d="M668.322 702.236C669.512 696.542 670.69 684.248 668.853 677.208C667.811 673.215 667.585 669.343 664.389 669.124C659.772 668.809 661.023 675.162 659.268 678.753C658.798 679.435 658.303 680.512 658.106 681.788C657.786 683.862 658.25 686.464 660.882 688.764" stroke="black" stroke-width="5" stroke-linecap="round"/>
<path d="M883.7 668.507L882.135 658.8L878.398 651.578C877.041 648.477 875.558 639.942 880.259 639.185C884.397 638.517 885.516 642.961 886.186 647.121L886.087 651.405" stroke="black" stroke-width="5" stroke-linecap="round"/>
<path d="M886.646 647.118C888.573 643.979 886.972 637.904 884.327 632.735C881.012 626.26 887.096 622.697 891.5 624.2C895.024 625.403 894.514 633.429 894.457 637.374" stroke="black" stroke-width="5" stroke-linecap="round"/>
<path d="M894.349 637.909C894.263 633.836 894.412 625.559 891.454 624.197C892.336 621.493 894.973 618.205 897.738 618.585C899.523 618.831 901.467 620.02 902.673 625.837C902.001 630.161 902.909 631.547 900.355 636.941" stroke="black" stroke-width="5" stroke-linecap="round"/>
<path d="M900.373 636.28C902.877 631.117 901.997 629.795 902.665 625.66C905.642 624.814 911.054 625.552 908.885 635.274L905.944 645.998" stroke="black" stroke-width="5" stroke-linecap="round"/>
<path d="M909.56 636.452C912.887 636.854 918.412 641 913.901 654.382C909.389 667.763 901.108 673.199 897.531 674.244" stroke="black" stroke-width="5" stroke-linecap="round"/>
<path d="M713.285 822.462C711.981 820.138 708.847 813.71 706.742 806.586" stroke="black" stroke-width="5" stroke-linecap="round"/>
<path d="M737.577 631.076C739.255 641.283 747.901 647.876 756.432 646.473C764.963 645.07 771.041 636.055 769.362 625.848C767.683 615.64 759.038 609.047 750.507 610.45C741.976 611.853 735.898 620.868 737.577 631.076Z" stroke="black" stroke-width="5"/>
<path d="M783.108 630.114C784.787 640.321 793.432 646.914 801.963 645.511C810.494 644.108 816.572 635.094 814.894 624.886C813.215 614.678 804.569 608.086 796.038 609.489C787.507 610.892 781.429 619.906 783.108 630.114Z" stroke="black" stroke-width="5"/>
<path d="M781.655 626.281L770.354 626.857" stroke="black" stroke-width="5" stroke-linecap="round"/>
<path d="M775.215 637.214C778.432 645.75 785.123 652.918 777.582 658.219" stroke="black" stroke-width="5" stroke-linecap="round"/>
<path d="M805.864 644.971C802.939 645.452 800.178 643.471 799.697 640.546C799.216 637.621 801.197 634.86 804.122 634.379C807.047 633.898 809.808 635.879 810.289 638.804C810.77 641.729 808.789 644.49 805.864 644.971Z" fill="black"/>
<path d="M761.038 645.817C758.113 646.299 755.352 644.317 754.871 641.392C754.39 638.467 756.371 635.706 759.296 635.225C762.221 634.744 764.982 636.725 765.463 639.65C765.944 642.575 763.963 645.336 761.038 645.817Z" fill="black"/>
<path d="M715.454 635.44C714.863 636.988 714.267 640.567 716.616 642.501" stroke="black" stroke-width="5" stroke-linecap="round"/>
<path d="M811.713 605.572C818.313 618.507 824.033 650 796.823 676.813C769.612 703.626 741.035 677.89 730.148 661.67L722.471 648.065C719.19 650.902 712.036 653.408 709.663 640.744C707.29 628.08 712.262 626.416 715.045 627.167C716.554 627.523 719.853 629.059 720.975 632.356" stroke="black" stroke-width="5" stroke-linecap="round"/>
<path d="M736.405 630.543L717.938 628.503" stroke="black" stroke-width="5" stroke-linecap="round"/>
<path d="M756.254 627.752C753.331 628.136 747.493 630.411 747.529 636.435" stroke="black" stroke-width="5" stroke-linecap="round"/>
<path d="M808.711 624.804C806.495 623.801 801.062 622.575 797.063 625.695" stroke="black" stroke-width="5" stroke-linecap="round"/>
<path d="M769.739 668.767C772.628 670.276 779.273 672.389 782.739 668.767" stroke="black" stroke-width="5" stroke-linecap="round"/>
<path d="M854.177 1036.95C850.579 1041.25 848.319 1050.4 853.525 1056.66C859.242 1063.54 863.632 1070.84 865.106 1075.98C865.58 1079.64 863.074 1085.42 849.259 1079.19C835.443 1072.95 825.472 1062.73 822.213 1058.39C820.568 1056.04 818.662 1049.53 824.207 1042.32C829.752 1035.1 832.786 1030.51 833.609 1029.11" stroke="black" stroke-width="5" stroke-linecap="round"/>
<path d="M988.65 988.372C988.9 993.962 993.44 1002.23 1001.51 1003.31C1010.37 1004.51 1018.55 1006.91 1023.11 1009.69C1025.94 1012.07 1028.01 1018.02 1013.62 1022.78C999.23 1027.54 984.97 1026.77 979.64 1025.79C976.83 1025.17 971.02 1021.67 970.22 1012.6C969.42 1003.54 968.54 998.102 968.2 996.522" stroke="black" stroke-width="5" stroke-linecap="round"/>
<path d="M657.288 864.523C659.81 876.196 672.108 903.177 701.123 917.712" stroke="black" stroke-width="5" stroke-linecap="round"/>
<path d="M675.299 917.532C676.772 921.982 682.539 932.422 693.824 938.602" stroke="black" stroke-width="5" stroke-linecap="round"/>
<path d="M1066.74 678.767C1074.6 672.859 1087.74 655.318 1078.53 646.575C1072.81 641.15 1064.36 647.114 1068.17 653.086C1075.32 664.299 1089.49 642.678 1094.25 632.469C1095.92 627.767 1097.47 616.916 1089.25 616.916C1078.89 616.916 1081.03 633.916 1092.47 631.384C1100.87 629.522 1107.48 613.299 1105.33 593.767" stroke="black" stroke-width="5" stroke-linecap="round"/>
<path d="M1012.74 1279.86C1036.53 1268.73 1094.43 1247.18 1135.74 1250.02C1141.59 1250.26 1150.44 1252.72 1138.96 1260.68C1127.49 1268.63 1121.75 1272.75 1120.32 1273.82C1114.34 1278.79 1108.48 1289.3 1132.87 1291.58C1163.35 1294.42 1249.41 1263.52 1419.74 1286.25" stroke="black" stroke-width="5" stroke-linecap="round"/>
<path d="M186.693 1098.18C197.622 1092.88 224.224 1082.62 243.204 1083.97C245.896 1084.08 249.96 1085.26 244.687 1089.05C239.415 1092.83 236.779 1094.8 236.12 1095.3C233.374 1097.67 230.683 1102.68 241.886 1103.76C255.891 1105.11 295.433 1090.4 373.693 1101.22" stroke="black" stroke-width="5" stroke-linecap="round"/>
<path d="M645.739 777.767C558.257 777.767 285.054 706.894 185.739 394.767" stroke="black" stroke-width="5" stroke-linecap="round"/>
<path d="M827.739 635.767C847.607 593.951 862.508 531.406 857.896 437.767" stroke="black" stroke-width="5" stroke-linecap="round"/>
<path d="M694.739 591.767C668.102 571.048 467.902 424.233 398.739 242.767" stroke="black" stroke-width="5" stroke-linecap="round"/>
<path d="M660.983 293.1C437.16 150.853 250.433 303.108 185.047 397.016C173.962 150.364 322.992 78.1502 484.226 23.9302C502.015 8.73834 472.436 5.21604 429.3 7.81834C559.474 -22.2407 704.754 42.1392 738.871 69.7992C926.58 206.892 904.909 381.181 888.694 413.829C869.809 451.85 810.715 475.48 771.296 416.541C731.876 357.603 681.329 309.69 660.983 293.1Z" fill="black"/>
<path d="M249.474 638.29C279.071 713.054 240.498 737.352 217.512 740.155C144.754 753.252 43.7591 705.831 9.65709 511.112C-37.9637 239.2 179.671 81.8262 355.746 28.4392C496.606 -14.2698 512.724 19.0002 461.751 33.0902C41.5171 149.253 212.477 544.835 249.474 638.29Z" stroke="black" stroke-width="5" stroke-linecap="round"/>
<path d="M240.739 730.767C322.433 786.263 524.762 865.527 673.739 814.19" stroke="black" stroke-width="5" stroke-linecap="round"/>
<path d="M1013.69 72.8523C1019.83 84.6563 1043.34 108.881 1088.28 111.345C1144.45 114.424 1151.82 124.278 1149.67 166.774C1147.52 209.27 1153.97 229.286 1212.9 218.2C1271.84 207.115 1356.25 149.837 1342.13 209.27C1340.18 217.995 1332.92 240.927 1319.41 262.852" stroke="black" stroke-width="5" stroke-linecap="round"/>
<path d="M530.77 1152V1131" stroke="black" stroke-width="5" stroke-linecap="round"/>
<path d="M512 1142.67L523.45 1152" stroke="black" stroke-width="5" stroke-linecap="round"/>
<path d="M538.41 1152L547 1138.33" stroke="black" stroke-width="5" stroke-linecap="round"/>
<path d="M1239.77 1019V998" stroke="black" stroke-width="5" stroke-linecap="round"/>
<path d="M1221 1009.67L1232.45 1019" stroke="black" stroke-width="5" stroke-linecap="round"/>
<path d="M1247.41 1019L1256 1005.33" stroke="black" stroke-width="5" stroke-linecap="round"/>
</svg>
