<svg width="416" height="284" viewBox="0 0 416 284" fill="none" xmlns="http://www.w3.org/2000/svg">
<path d="M229.829 17.4238C263.029 41.4238 260.996 142.424 255.829 189.924H266.829C282.829 89.9238 263.496 37.5905 251.829 23.9238L229.829 17.4238Z" fill="black"/>
<path d="M346.829 51.4238C379.968 72.0151 377.939 158.67 372.781 199.424H383.761C399.732 113.627 380.434 68.7262 368.789 57.0006L346.829 51.4238Z" fill="black"/>
<path d="M409.829 193.424C415.496 148.59 413.829 67.9238 367.829 55.9238" stroke="black" stroke-width="5" stroke-linecap="round"/>
<path d="M367.829 55.9238L181.329 3.92383" stroke="black" stroke-width="5" stroke-linecap="round"/>
<path d="M411.893 200.864L248.893 190.492C248.317 190.455 247.829 190.912 247.829 191.489V207.98C247.829 208.51 248.243 208.948 248.772 208.978L411.772 218.363C412.346 218.396 412.829 217.939 412.829 217.365V201.862C412.829 201.335 412.419 200.898 411.893 200.864Z" stroke="black" stroke-width="5" stroke-linecap="round"/>
<path d="M295.829 212.424V281.424" stroke="black" stroke-width="5" stroke-linecap="round"/>
<path d="M262.829 210.923V258.423" stroke="black" stroke-width="5" stroke-linecap="round"/>
<path d="M13.3361 236.853C35.3066 252.346 179.509 212.189 246.829 190.924L109.329 196.424C63.2759 202.12 -8.63435 221.36 13.3361 236.853Z" fill="black" stroke="black" stroke-width="5" stroke-linecap="round"/>
<path d="M247.829 207.424C209.215 227.644 108.818 268.706 17.8291 260.307" stroke="black" stroke-width="5" stroke-linecap="round"/>
<path d="M17.8291 259.924L9.8291 233.424" stroke="black" stroke-width="5" stroke-linecap="round"/>
<path d="M228.329 186.923C235.996 120.59 233.829 -8.87656 163.829 3.92344C149.162 6.42341 117.829 22.8233 109.829 68.4233" stroke="black" stroke-width="5" stroke-linecap="round"/>
<path d="M110.456 65.1357C119.349 22.0309 149.52 6.36238 163.829 3.92344C200.874 -2.85047 218.921 30.2196 226.567 72.6905C226.909 74.5938 225.361 76.2974 223.431 76.1659L113.156 68.6501C111.378 68.5289 110.096 66.8809 110.456 65.1357Z" fill="black"/>
<path d="M110 195.04L167.329 134.152" stroke="black" stroke-width="5" stroke-linecap="round"/>
<path d="M88 69.54L167.329 134.152L193.865 155.819C194.999 156.745 196.636 156.718 197.738 155.754L230 127.54" stroke="black" stroke-width="5" stroke-linecap="round"/>
<path d="M89.6951 68.6104L222.561 77.3071C223.652 77.3785 224.62 78.0201 225.032 79.0327C234.169 101.469 231.704 157.131 229.074 185.029C228.937 186.483 227.764 187.615 226.307 187.717L111.39 195.778C110.149 195.865 108.984 195.187 108.477 194.051C98.675 172.076 82.0382 120.211 86.5417 71.2797C86.6889 69.6805 88.0925 68.5055 89.6951 68.6104Z" stroke="black" stroke-width="5" stroke-linecap="round"/>
<path d="M91.8291 142.423C72.8267 142.423 71.4186 141.046 52.4243 137.853C50.9451 137.604 49.5133 138.484 48.9746 139.884C42.4965 156.721 19.6781 184.72 6.32879 160.923C2.49545 154.09 -1.37121 134.423 13.8288 110.423C28.6909 86.9567 43.4893 97.5889 49.437 106.33C49.7013 106.719 49.8557 107.166 49.8958 107.635C50.5306 115.04 49.6863 127.401 44.2267 137.423C41.1175 143.131 36.5114 148.08 29.8291 150.923C11.0289 158.923 10.8291 137.423 16.8291 125.923C19.829 119.423 25.3291 113.423 33.3291 119.423C39.8291 125.423 34.3291 131.923 30.8291 136.423" stroke="black" stroke-width="5" stroke-linecap="round"/>
<path d="M20.3291 170.043L101.329 177.924" stroke="black" stroke-width="5" stroke-linecap="round"/>
<path d="M86.3294 106.923C67.8294 106.923 68.3294 106.923 37.8291 96.9229" stroke="black" stroke-width="5" stroke-linecap="round"/>
<path d="M30.8291 136.424L44.2267 137.424" stroke="black" stroke-width="5" stroke-linecap="round"/>
</svg>
