<svg width="844" height="316" viewBox="0 0 844 316" fill="none" xmlns="http://www.w3.org/2000/svg">
<path d="M138.5 291.582C160.9 249.582 162.5 188.997 160.5 163.954C120.5 97.9539 86.5 148.454 86.5 148.454C70 167.163 34.4 226.282 24 313.082" stroke="black" stroke-width="5" stroke-linecap="round"/>
<path d="M628.405 295.272C616.805 244.473 623.572 197.439 628.405 180.272C652.905 99.2722 707.456 116.911 707.456 148.41L712.956 233.91" stroke="black" stroke-width="5" stroke-linecap="round"/>
<path d="M184.5 39.2923C190.167 33.522 207.209 13.2313 197 4.48096C186.5 -4.51843 165 31.1485 161.5 41.9818C149.333 53.8151 130.8 72.6812 104 119.481" stroke="black" stroke-width="5" stroke-linecap="round"/>
<path d="M217 30.9943C209.779 30.6313 198.002 32.6078 184.5 39.2919C176.167 44.8551 157.7 60.3814 150.5 77.9814" stroke="black" stroke-width="5" stroke-linecap="round"/>
<path d="M266.5 34.4092C256.157 29.7339 237.193 25.7193 217 30.9944C202.375 34.8149 187.105 43.5083 174 60.3529" stroke="black" stroke-width="5" stroke-linecap="round"/>
<path d="M168 151.853C173.667 144.853 194.5 132.953 232.5 141.353C249 146.644 282.3 154.05 283.5 141.353C287 125.853 250.5 100.353 232.5 108.353C214.5 116.353 213.5 95.3531 223 82.8531C232.5 70.3531 244 41.8531 262 62.3531C268 71.772 266.5 89.3527 279.5 97.9809C293.597 107.337 304.5 94.853 298 85.853C292.251 77.8931 290.022 78.1465 291.659 65.8587C291.873 64.253 292.153 62.4333 292.5 60.353C291.131 51.1585 283.915 38.9983 266.5 34.4093C252.112 30.618 226.5 36.9815 207 55.9815" stroke="black" stroke-width="5" stroke-linecap="round"/>
<path d="M497.02 55.4828C496.997 46.7329 501.458 33.8403 515.501 26.0695C535.501 13.5405 586.401 -1.81735 630.001 36.9826C673.601 75.7826 682.834 99.0571 682.001 105.844" stroke="black" stroke-width="5" stroke-linecap="round"/>
<path d="M497.02 55.4819C496.997 46.732 501.458 33.8394 515.501 26.0686C526.334 20.0737 563.5 12.2884 583.5 27.9815" stroke="black" stroke-width="5" stroke-linecap="round"/>
<path d="M623.949 159.343C624.282 148.343 617.949 132.043 591.949 140.843C559.449 151.843 500.949 147.843 500.449 122.343C500.049 101.943 536.616 102.843 554.949 105.843C566.949 107.51 586.249 104.443 567.449 78.843C543.949 46.843 531.674 49.481 521.5 68.981C515.5 80.481 515.5 83.481 506.5 83.481C491.831 83.481 490.783 69.8431 493.949 62.8431C494.684 60.5593 495.703 58.06 497.02 55.4814C505.862 38.1653 521.5 17.481 567.449 39.981" stroke="black" stroke-width="5" stroke-linecap="round"/>
<path d="M146.5 55.9821C137 45.3155 117.4 35.1824 93 55.9824C62.5 81.9824 86.5 161.482 29.5 145.982C24.3333 144.816 11.8 139.582 3 127.982" stroke="black" stroke-width="5" stroke-linecap="round"/>
<path d="M221.5 86.3542C248 84.9825 253 104.983 279 114.983" stroke="black" stroke-width="5" stroke-linecap="round"/>
<path d="M433.948 96.9824C427.448 98.4824 418.449 101.216 407.449 100.482C399.949 99.9824 397.449 113.482 408.449 113.482C415.949 112.982 428.448 111.482 434.948 108.482" stroke="black" stroke-width="5" stroke-linecap="round"/>
<path d="M436 121.982C424 122.316 403 120.748 403 129.982C403 142.482 418.5 137.982 440.5 132.982" stroke="black" stroke-width="5" stroke-linecap="round"/>
<path d="M323 92.4815C326.333 87.8148 332.4 82.9659 338 94.1659C343.6 105.366 340.333 131.815 339 142.981C338 150.481 328 146.981 325.5 140.981" stroke="black" stroke-width="5" stroke-linecap="round"/>
<path d="M515 90.4819C499.432 74.9991 458.942 74.3654 434.696 81.3201C433.615 81.6302 432.823 82.5439 432.652 83.6554C428.383 111.382 436.935 135.291 442.565 145.339C443.095 146.285 444.124 146.819 445.207 146.753C471.124 145.192 490.989 133.676 499.08 127.022C499.941 126.314 500.246 125.165 500.096 124.061C498.673 113.65 509.34 107.824 515.958 105.763C516.888 105.474 517.674 104.807 517.962 103.877C519.939 97.5069 517.839 93.3052 515 90.4819Z" fill="black"/>
<path d="M518.5 95.9826C526.5 89.6493 548 78.4826 570 84.4826" stroke="black" stroke-width="5" stroke-linecap="round"/>
<path d="M674.5 81.9813C691.5 73.481 706 71.4815 731.5 88.9817C761.849 109.81 816.167 92.3151 841.5 78.4817" stroke="black" stroke-width="5" stroke-linecap="round"/>
<path d="M277.5 113.482C272.7 139.882 304.833 145.816 321.5 145.482C339.5 147.311 345 85.4824 314.5 89.9824C309.409 90.7335 304.927 91.9184 301 93.3809C295.5 101.482 288.29 99.801 284.5 103.446C280.581 107.216 278.372 110.934 277.5 113.482Z" fill="black"/>
<path d="M409.138 192.482L421.638 200.482" stroke="black" stroke-width="5" stroke-linecap="round"/>
<path d="M371.638 187.481C371.638 192.648 373.038 204.781 378.638 211.981" stroke="black" stroke-width="5" stroke-linecap="round"/>
<path d="M337.638 182.981C334.138 187.648 329.238 198.381 337.638 203.981" stroke="black" stroke-width="5" stroke-linecap="round"/>
<path d="M404.04 50.5181C405.303 43.8337 408.856 28.9134 412.961 22.7078" stroke="black" stroke-width="5" stroke-linecap="round"/>
<path d="M369.987 49.2318C368.272 45.068 366.096 34.3591 371.107 24.8342" stroke="black" stroke-width="5" stroke-linecap="round"/>
<path d="M338.409 56.0919C337.19 54.2325 335.08 47.9404 336.397 37.6474" stroke="black" stroke-width="5" stroke-linecap="round"/>
</svg>
