<svg width="1975" height="853" viewBox="0 0 1975 853" fill="none" xmlns="http://www.w3.org/2000/svg">
<path d="M1769.98 649.204C1769.98 649.933 1757.2 661.843 1754.96 668.618C1754.12 671.128 1754.74 672.933 1757.98 673.204C1767.58 674.004 1778.98 659.537 1783.48 652.204" stroke="black" stroke-width="5" stroke-linecap="round"/>
<path d="M1754.98 640.204C1750.19 647.645 1741.83 659.113 1734.51 665.618C1735.18 670.618 1740.2 678.218 1754.96 668.618C1757.2 661.843 1769.98 649.933 1769.98 649.204" stroke="black" stroke-width="5" stroke-linecap="round"/>
<path d="M1741.98 633.204C1732.82 643.037 1716.18 664.104 1722.98 669.704C1724.19 670.696 1725.72 670.792 1727.48 670.211C1729.58 669.518 1731.98 667.864 1734.51 665.618C1741.83 659.113 1750.19 647.645 1754.98 640.204" stroke="black" stroke-width="5" stroke-linecap="round"/>
<path d="M1815.98 652.204C1800.65 633.537 1752.98 599.704 1724.98 624.204C1713.82 635.037 1699.9 654.618 1707.9 662.618C1711.9 665.618 1720.56 661.618 1726.14 653.618" stroke="black" stroke-width="5" stroke-linecap="round"/>
<path d="M1639.33 438.27C1651.26 444.926 1677.89 454.245 1688.9 438.27C1702.67 418.301 1715.07 441.985 1709.56 457.31C1704.05 472.635 1657.3 498.143 1625.9 442.193" stroke="black" stroke-width="5" stroke-linecap="round"/>
<path d="M1632.67 527.949C1639.16 528.379 1655.8 524.382 1670.41 504.949" stroke="black" stroke-width="5" stroke-linecap="round"/>
<path d="M1666.67 478.449C1665.59 484.5 1665.82 494.772 1670.41 504.949C1674.28 513.551 1681.26 522.086 1693.17 527.949" stroke="black" stroke-width="5" stroke-linecap="round"/>
<path d="M1684.17 475.949C1692.67 483.115 1706.67 502.349 1700.67 527.949" stroke="black" stroke-width="5" stroke-linecap="round"/>
<path d="M1660.17 474.449C1650.5 479.282 1632.07 494.649 1635.67 517.449" stroke="black" stroke-width="5" stroke-linecap="round"/>
<path d="M1797.9 444.118C1902.4 444.118 1902.7 573.118 1955.9 625.118" stroke="black" stroke-width="5" stroke-linecap="round"/>
<path d="M1653.44 186.67C1606.4 193.464 1589.42 250.906 1586.8 278.778C1573.37 323.004 1574.56 359.727 1584.03 387.218C1585.61 394.186 1581.84 406.423 1554.13 399.63C1526.43 392.836 1538.24 345.41 1547.6 322.546C1552.83 310.526 1554.13 288.359 1554.13 278.778C1544.2 149.696 1623.17 135.717 1663.9 144.862C1651.35 153.224 1651.7 176.218 1653.44 186.67Z" fill="black"/>
<path d="M1818.04 216.761C1797.75 112.152 1676 116.727 1639.35 148.764C1598.11 201.069 1703.49 330.524 1732.29 318.101C1752.71 302.41 1768.04 310.909 1772.22 318.101C1791.07 350.53 1764.37 368.662 1748.66 373.675C1752.85 396.166 1698.91 420.749 1706.77 437.748C1748.66 490.707 1876.95 404.404 1846.18 378.252C1821.57 357.33 1822.91 330.525 1823.27 318.101C1825.24 252.067 1823.27 246.837 1818.04 216.761Z" fill="black"/>
<path d="M1636.9 358.618C1613.13 353.475 1625.67 343.189 1630.96 322.618" stroke="black" stroke-width="5" stroke-linecap="round"/>
<ellipse rx="5.98134" ry="8.97201" transform="matrix(-0.981591 0.190995 0.190995 0.981591 1601.9 302.026)" fill="black"/>
<ellipse rx="5.90198" ry="8.85297" transform="matrix(-0.988875 0.148746 0.148746 0.988875 1668.62 318.879)" fill="black"/>
<path d="M1757.9 328.618C1760.16 332.618 1763.33 342.218 1757.9 348.618" stroke="black" stroke-width="5" stroke-linecap="round"/>
<path d="M1712.9 430.512C1658.66 430.512 1628.6 466.258 1580.9 387.618" stroke="black" stroke-width="5" stroke-linecap="round"/>
<path d="M1642.9 395.095C1630.22 399.008 1620.07 395.095 1616.9 386.618" stroke="black" stroke-width="5" stroke-linecap="round"/>
<path d="M1644.4 319.618C1644.4 335.648 1655.86 348.118 1669.4 348.118C1682.93 348.118 1694.4 335.648 1694.4 319.618C1694.4 303.588 1682.93 291.118 1669.4 291.118C1655.86 291.118 1644.4 303.588 1644.4 319.618Z" stroke="black" stroke-width="5"/>
<path d="M1577.4 302.618C1577.4 318.648 1588.86 331.118 1602.4 331.118C1615.93 331.118 1627.4 318.648 1627.4 302.618C1627.4 286.588 1615.93 274.118 1602.4 274.118C1588.86 274.118 1577.4 286.588 1577.4 302.618Z" stroke="black" stroke-width="5"/>
<path d="M1627.9 306.096C1631.97 305.234 1641.27 304.933 1645.9 310.618" stroke="black" stroke-width="5" stroke-linecap="round"/>
<path d="M1693.48 309.859L1713.73 310.512" stroke="black" stroke-width="5" stroke-linecap="round"/>
<path d="M959.398 454.533V539.533" stroke="black" stroke-width="5" stroke-linecap="round"/>
<path d="M1023.4 464.533V545.533" stroke="black" stroke-width="5" stroke-linecap="round"/>
<path d="M767.971 440.941L781.378 684.582C781.67 689.884 786.054 694.033 791.363 694.033H1165.4C1170.92 694.033 1175.4 689.556 1175.4 684.033V435.168C1175.4 429.593 1170.84 425.094 1165.26 425.169L777.821 430.392C772.136 430.469 767.659 435.264 767.971 440.941Z" fill="black"/>
<rect x="779.398" y="697.533" width="396" height="19" rx="9.5" fill="black"/>
<path d="M1024.4 319.533C1059.23 319.033 1135.9 345.532 1166.4 429.032" stroke="black" stroke-width="5" stroke-linecap="round"/>
<path d="M947.898 319.033C868.398 334.533 830.398 368.533 800.398 434.033" stroke="black" stroke-width="5" stroke-linecap="round"/>
<path d="M1233.4 407.118L1259.9 385.118" stroke="black" stroke-width="5" stroke-linecap="round"/>
<path d="M1213.9 398.118L1233.4 365.618" stroke="black" stroke-width="5" stroke-linecap="round"/>
<path d="M1237.4 422.118C1242.57 424.118 1254.3 426.018 1259.9 417.618" stroke="black" stroke-width="5" stroke-linecap="round"/>
<path d="M756.398 387.033L738.398 340.533" stroke="black" stroke-width="5" stroke-linecap="round"/>
<path d="M725.898 392.033L695.898 361.033" stroke="black" stroke-width="5" stroke-linecap="round"/>
<path d="M718.398 409.533L695.898 401.033" stroke="black" stroke-width="5" stroke-linecap="round"/>
<path d="M704.398 670.308C709.448 670.136 715.083 669.9 721.359 669.587C759.876 667.661 759.14 640.853 753.526 626.22C753.107 625.127 752.429 624.13 751.611 623.294C715.308 586.176 683.344 597.899 670.573 609.433C669.75 610.177 669.095 611.123 668.615 612.123C648.242 654.585 655.56 667.628 663.271 669.376C664.624 669.683 666.033 669.83 667.408 670.013C671.72 670.587 682.601 671.048 704.398 670.308ZM704.398 670.308C702.065 661.216 700.298 638.732 711.898 621.532" stroke="black" stroke-width="5" stroke-linecap="round"/>
<path d="M1825.4 649.533H1972.4" stroke="black" stroke-width="5" stroke-linecap="round"/>
<path d="M1686.9 649.533H1544.9" stroke="black" stroke-width="5" stroke-linecap="round"/>
<path d="M1313.9 649.533H1428.4" stroke="black" stroke-width="5" stroke-linecap="round"/>
<path d="M629.898 649.533H521.898" stroke="black" stroke-width="5" stroke-linecap="round"/>
<path d="M342.898 764.618L290.898 840.118" stroke="black" stroke-width="5" stroke-linecap="round"/>
<path d="M1186.4 485.118C1204.9 514.118 1225.9 548.618 1186.4 613.532" stroke="black" stroke-width="5" stroke-linecap="round"/>
<path d="M1246.31 675.406C1237.09 673.669 1219.09 676.777 1229.87 699.225C1238.09 716.346 1250.79 725.279 1254.53 729" stroke="black" stroke-width="5" stroke-linecap="round"/>
<path d="M1268.46 750.813C1248.07 733.536 1248.03 689.332 1250.85 666.468C1251 665.197 1252.31 664.431 1253.53 664.834C1273.6 671.471 1297.81 667.89 1309.53 664.676C1310.74 664.346 1311.98 665.17 1312.12 666.412C1318.24 720.53 1303.02 744.67 1294.51 750.832C1294.43 750.892 1294.35 750.94 1294.26 750.986C1289.53 753.294 1278.06 756.414 1268.73 751.002C1268.63 750.947 1268.54 750.884 1268.46 750.813Z" stroke="black" stroke-width="5" stroke-linecap="round"/>
<ellipse cx="1281.53" cy="664" rx="32" ry="6" fill="black"/>
<path d="M1288.7 643C1294.05 638.259 1301.53 623.457 1288.7 602.17C1275.87 580.884 1289.91 561.187 1298.53 554" stroke="black" stroke-width="5" stroke-linecap="round"/>
<path d="M1273.53 622C1266.09 611.965 1254.42 587.516 1267.3 570" stroke="black" stroke-width="5" stroke-linecap="round"/>
<path d="M1327.42 751.234C1341.38 743.568 1316.39 745.044 1302.75 745.243L1295.53 752.431C1310.58 755.426 1322.01 753.629 1327.42 751.234Z" fill="black"/>
<path d="M1024.9 322.032C1029.4 309.032 1025.3 300.284 1021.3 298.618C997.299 320.618 960.898 312.451 947.398 299.118C942.598 303.518 945.398 316.532 947.398 320.532C973.398 349.332 1010.4 333.199 1024.9 322.032Z" fill="black"/>
<path d="M918.398 402.033L926.429 389.707C934.255 377.695 949.487 372.899 962.784 378.261L981.92 385.977C993.86 390.791 1007.54 387.452 1015.92 377.678L1037.9 352.033" stroke="black" stroke-width="5" stroke-linecap="round"/>
<path d="M761.898 503.533C754.398 521.199 745.498 564.033 769.898 594.033" stroke="black" stroke-width="5" stroke-linecap="round"/>
<path d="M1093.84 117.638C1082.84 157.138 1077.34 160.638 1061.34 178.138C1061.34 160.843 1058.37 131.814 1058.37 119.726C1005.98 119.726 961.768 98.3395 946.21 87.6463C946.767 123.91 912.77 147.621 912.77 147.621C912.77 147.621 917.647 162.266 920.433 195.043C922.663 221.264 916.253 216.196 912.77 210.385C902.738 178.027 886.297 186.674 879.33 195.043C793.843 56.1382 925.309 29.299 950.389 31.856C969.338 15.6768 995.764 2.9979 1014.34 1.13823C1081.34 -5.56869 1111.68 53.5903 1093.84 117.638Z" fill="black"/>
<path d="M913.941 235.108C922.941 290.053 983.349 329.562 1026.94 285.053C1070.53 240.544 1061.81 159.071 1057.15 121.053" stroke="black" stroke-width="5" stroke-linecap="round"/>
<path d="M878.342 191.638C872.842 205.138 878.002 235.053 913.942 235.053" stroke="black" stroke-width="5" stroke-linecap="round"/>
<path d="M894.193 199.053C893.397 201.942 894.034 208.787 902.941 213.053" stroke="black" stroke-width="5" stroke-linecap="round"/>
<path d="M1055.94 228.053C1067.67 223.163 1075.94 205.053 1072.76 176.053" stroke="black" stroke-width="5" stroke-linecap="round"/>
<path d="M989.941 261.053C1001.44 264.053 1000.71 255.798 1009.44 248.553" stroke="black" stroke-width="5" stroke-linecap="round"/>
<circle cx="1024.27" cy="191.203" r="7.5" fill="black"/>
<circle cx="958.271" cy="192.203" r="7.5" fill="black"/>
<path d="M941.941 175.053C943.52 170.406 950.33 161.81 964.941 164.598" stroke="black" stroke-width="5" stroke-linecap="round"/>
<path d="M1011.94 166.053C1015.43 163.035 1024.91 158.809 1034.94 166.053" stroke="black" stroke-width="5" stroke-linecap="round"/>
<path d="M987.748 187.053C986.584 196.927 985.792 216.951 991.941 218.053" stroke="black" stroke-width="5" stroke-linecap="round"/>
<path d="M1449.4 650.119C1446.9 628.618 1436.13 622.872 1483.39 532.217C1503.87 492.918 1544.17 483.557 1571.06 492.841C1592.18 500.136 1605.63 524.084 1549.02 633.123" stroke="black" stroke-width="5" stroke-linecap="round"/>
<path d="M1586.9 489.618C1594.73 480.951 1610.2 458.618 1609.4 438.618" stroke="black" stroke-width="5" stroke-linecap="round"/>
<path d="M1538.4 478.618C1538.4 477.118 1557.9 462.118 1551.9 438.618C1550.02 431.246 1542.2 402.718 1545.4 393.118" stroke="black" stroke-width="5" stroke-linecap="round"/>
<path d="M270.263 369.44C275.241 313.263 250.942 283.714 238.17 275.963C279.486 299.262 320.201 284.119 335.394 273.636L340.05 298.598C368.356 301.456 375.1 263.061 374.933 243.507C374.675 213.338 341.32 176.085 274.967 191.024C208.614 205.962 172.199 260.882 162.284 286.475C114.777 273.405 63.7434 308.972 44.165 328.39C23.9205 348.545 -18.701 409.477 11.2276 477.511C51.6063 569.3 159.014 546.507 176.545 537.478C237.121 506.283 264.041 439.661 270.263 369.44Z" fill="black"/>
<path d="M361.049 359.089C359.636 368.624 356.11 376.775 351.703 382.257C347.247 387.802 342.314 390.171 337.958 389.526C333.603 388.88 329.569 385.181 326.91 378.581C324.282 372.057 323.268 363.233 324.68 353.697C326.091 344.162 329.619 336.011 334.025 330.529C338.482 324.983 343.415 322.614 347.771 323.259C352.126 323.906 356.16 327.603 358.818 334.204C361.447 340.728 362.461 349.553 361.049 359.089Z" stroke="black" stroke-width="5"/>
<path d="M343.157 367.291C346.223 367.744 349.371 363.637 350.189 358.114C351.007 352.592 349.184 347.746 346.118 347.292C343.052 346.837 339.904 350.946 339.086 356.468C338.268 361.991 340.091 366.836 343.157 367.291Z" fill="black"/>
<path d="M270.43 364.737L322.322 360.028" stroke="black" stroke-width="5" stroke-linecap="round"/>
<path d="M345.761 299.58C350.243 308.607 363.467 328.338 377.275 339.38C391.396 350.674 392.589 365.071 383.573 375.444L369.518 391.762C377.275 451.106 365.847 495.051 293.156 515.507" stroke="black" stroke-width="5" stroke-linecap="round"/>
<path d="M292.293 418.864C294.01 419.119 295.61 417.932 295.864 416.213C296.118 414.495 294.933 412.895 293.214 412.64C291.497 412.386 289.898 413.572 289.644 415.292C289.389 417.01 290.575 418.61 292.293 418.864Z" fill="black"/>
<path d="M281.028 447.723C283.089 448.029 284.967 446.883 285.221 445.164C285.475 443.445 284.01 441.805 281.949 441.499C279.888 441.193 278.01 442.339 277.756 444.058C277.502 445.776 278.967 447.417 281.028 447.723Z" fill="black"/>
<path d="M308.443 442.884C310.504 443.19 312.381 442.045 312.636 440.325C312.89 438.607 311.425 436.966 309.364 436.66C307.303 436.354 305.425 437.5 305.171 439.219C304.917 440.937 306.381 442.578 308.443 442.884Z" fill="black"/>
<path d="M365.397 573.187L388.668 548.452C392.879 543.773 403.828 538.692 413.934 555.806C424.041 572.919 420.362 591.013 417.259 597.921" stroke="black" stroke-width="5" stroke-linecap="round"/>
<path d="M488.293 531.937C490.6 528.819 491.827 526.077 492.261 524.177C494.476 520.297 495.8 511.343 482.959 508.011C463.024 502.837 466.347 515.124 470.334 515.77C483.623 517.322 489.173 528.488 488.293 531.937Z" stroke="black" stroke-width="5" stroke-linecap="round"/>
<path d="M420.551 584.725C422.545 577.869 432.647 561.965 457.105 553.19C473.578 547.279 482.936 538.757 487.696 531.937" stroke="black" stroke-width="5" stroke-linecap="round"/>
<path d="M456.521 534.07C450.478 530.85 435.304 527.114 422.949 537.935" stroke="black" stroke-width="5" stroke-linecap="round"/>
<path d="M475.706 534.336C469.797 523.86 454.57 505.914 440.935 517.939" stroke="black" stroke-width="5" stroke-linecap="round"/>
<path d="M407.362 537.935C412.809 521.925 424.385 501.039 462.517 498.344" stroke="black" stroke-width="5" stroke-linecap="round"/>
<path d="M508.512 598.841C511.272 594.987 512.658 591.477 511.4 589.054C507.742 582.009 498.746 589.24 494.706 593.737C484.649 604.554 465.295 623.358 470.512 601.477C475.728 579.596 464.633 580.943 438.654 607.652L412.83 623.365" stroke="black" stroke-width="5" stroke-linecap="round"/>
<path d="M506.401 633.149C508.625 639.992 505.057 655.831 472.355 659.669C459.982 661.12 458.123 660.916 446.51 659.936H426.619" stroke="black" stroke-width="5" stroke-linecap="round"/>
<path d="M486.569 619.458C492.995 614.721 503.243 606.12 508.503 598.773C514.215 598.707 519.746 601.928 510.931 613.186C507.114 618.061 500.608 624.441 490.263 632.714" stroke="black" stroke-width="5" stroke-linecap="round"/>
<path d="M490.273 632.783C500.618 624.51 507.124 618.13 510.94 613.255C516.39 614.792 521.293 620.737 506.401 633.149C503.144 635.863 498.941 638.887 493.589 642.242" stroke="black" stroke-width="5" stroke-linecap="round"/>
<path d="M176.795 549.48C88.7126 613.769 99.2524 693.942 99.2524 793.023" stroke="black" stroke-width="5" stroke-linecap="round"/>
<path d="M179.194 550.571L221.479 587.596C222.852 588.799 225.012 588.086 225.401 586.302L236.425 535.858C236.834 533.988 239.16 533.325 240.491 534.703L269.119 564.313" stroke="black" stroke-width="5" stroke-linecap="round"/>
<path d="M269.119 520.687C271.464 525.084 274.826 532.231 277.977 540.536C282.301 551.937 286.227 565.523 286.578 577.183" stroke="black" stroke-width="5" stroke-linecap="round"/>
<path d="M277.978 540.537L357.004 582.925" stroke="black" stroke-width="5" stroke-linecap="round"/>
<path d="M216.363 623.273C230.804 642.848 312.134 697.052 370.66 637.579L386.622 620.263" stroke="black" stroke-width="5" stroke-linecap="round"/>
<path d="M255.93 814.618C274.72 809.757 363.841 760.925 389.797 715.55" stroke="black" stroke-width="5" stroke-linecap="round"/>
<path d="M382.839 656.563C389.276 679.685 391.087 699.203 389.797 715.55C404.117 705.718 417.796 698.156 417.796 667.151C417.796 645.219 401.838 626.313 387.398 620.263" stroke="black" stroke-width="5" stroke-linecap="round"/>
<path d="M263.124 604.668C266.435 604.668 269.119 601.445 269.119 597.469C269.119 593.493 266.435 590.271 263.124 590.271C259.814 590.271 257.129 593.493 257.129 597.469C257.129 601.445 259.814 604.668 263.124 604.668Z" fill="black"/>
<path d="M271.518 639.459C274.828 639.459 277.513 636.236 277.513 632.26C277.513 628.284 274.828 625.062 271.518 625.062C268.207 625.062 265.522 628.284 265.522 632.26C265.522 636.236 268.207 639.459 271.518 639.459Z" fill="black"/>
<path d="M335.206 440.306C334.434 444.985 336.441 454.655 350.652 455.902" stroke="black" stroke-width="5" stroke-linecap="round"/>
<path d="M458.511 478.279C450.837 486.917 467.508 498.678 472.223 505.538C478.937 503.619 496.884 507.076 493.287 518.473C499.882 511.075 523.259 492.68 527.455 487.281C536.315 475.883 524.297 466.887 516.062 457.888C510.572 451.889 502.875 439.893 488.486 451.889C477.695 460.887 466.185 469.641 458.511 478.279Z" stroke="black" stroke-width="5"/>
<path d="M482.311 602.119L471.071 582.708C470.791 582.223 470.882 581.609 471.293 581.228C478.785 574.299 494.755 559.864 505.387 551.394C505.922 550.967 506.698 551.073 507.086 551.636C513.074 560.334 525.113 581.357 530.862 604.221C530.933 604.505 530.901 604.802 530.76 605.06C527.235 611.497 524.266 615.317 517.071 619.516" stroke="black" stroke-width="5" stroke-linecap="round"/>
<path d="M1648.65 843.617C1639.45 827.617 1668.81 825.284 1684.65 826.117V837.618L1736.15 843.617C1710.81 850.284 1657.85 859.617 1648.65 843.617Z" fill="black"/>
<path d="M1761.64 822.118L1742.14 842.118" stroke="black" stroke-width="5" stroke-linecap="round"/>
<path d="M1737.64 781.118L1687.14 777.618" stroke="black" stroke-width="5" stroke-linecap="round"/>
<path d="M1707.64 764.618L1761.64 767.118" stroke="black" stroke-width="5" stroke-linecap="round"/>
<path d="M1686.14 777.618L1683.64 835.618" stroke="black" stroke-width="5" stroke-linecap="round"/>
<path d="M1761.64 768.118V821.118" stroke="black" stroke-width="5" stroke-linecap="round"/>
<path d="M1742.14 799.618V842.118" stroke="black" stroke-width="5" stroke-linecap="round"/>
<path d="M1686.14 777.618L1707.64 764.618" stroke="black" stroke-width="5" stroke-linecap="round"/>
<path d="M1742.14 842.118L1683.14 836.118" stroke="black" stroke-width="5" stroke-linecap="round"/>
<path d="M1453.9 791.118C1454.4 777.118 1510.4 781.618 1513.9 782.118V791.118L1530.9 803.118C1505.07 803.784 1453.5 802.318 1453.9 791.118Z" fill="black"/>
<path d="M1592.9 789.618V738.618" stroke="black" stroke-width="5" stroke-linecap="round"/>
<path d="M1549.4 802.618V746.618" stroke="black" stroke-width="5" stroke-linecap="round"/>
<path d="M1513.4 789.618V733.618" stroke="black" stroke-width="5" stroke-linecap="round"/>
<path d="M1513.4 733.618L1552.9 723.618" stroke="black" stroke-width="5" stroke-linecap="round"/>
<path d="M1592.9 738.118L1549.4 746.118" stroke="black" stroke-width="5" stroke-linecap="round"/>
<path d="M1549.4 803.118L1592.9 790.118" stroke="black" stroke-width="5" stroke-linecap="round"/>
<path d="M1592.9 738.118L1552.9 723.618" stroke="black" stroke-width="5" stroke-linecap="round"/>
<path d="M1513.4 734.118L1549.9 746.118" stroke="black" stroke-width="5" stroke-linecap="round"/>
<path d="M494.901 808.118C495.401 794.118 551.401 798.618 554.901 799.118V808.118L571.901 820.118C546.067 820.784 494.501 819.318 494.901 808.118Z" fill="black"/>
<path d="M633.9 806.618V755.618" stroke="black" stroke-width="5" stroke-linecap="round"/>
<path d="M590.4 819.618V763.618" stroke="black" stroke-width="5" stroke-linecap="round"/>
<path d="M554.4 806.618V750.618" stroke="black" stroke-width="5" stroke-linecap="round"/>
<path d="M590.4 820.118L633.9 807.118" stroke="black" stroke-width="5" stroke-linecap="round"/>
<path d="M633.9 755.118L590.4 763.118" stroke="black" stroke-width="5" stroke-linecap="round"/>
<path d="M554.4 750.618L593.9 740.618" stroke="black" stroke-width="5" stroke-linecap="round"/>
<path d="M633.9 755.118L593.9 740.618" stroke="black" stroke-width="5" stroke-linecap="round"/>
<path d="M554.4 751.118L590.9 763.118" stroke="black" stroke-width="5" stroke-linecap="round"/>
<path d="M618.334 703.974L597.22 737.048C596.538 738.116 597.008 739.541 598.192 739.993L632.317 753.014C633.23 753.363 634.261 753 634.755 752.158L654.688 718.181C655.319 717.106 654.823 715.722 653.653 715.292L620.71 703.173C619.828 702.849 618.839 703.182 618.334 703.974Z" stroke="black" stroke-width="5"/>
<path d="M560.441 697.618L568.441 715.618" stroke="black" stroke-width="5" stroke-linecap="round"/>
<path d="M532.441 707.618L558.441 729.618" stroke="black" stroke-width="5" stroke-linecap="round"/>
<path d="M531.441 736.618L547.441 745.618" stroke="black" stroke-width="5" stroke-linecap="round"/>
</svg>
