<svg width="288" height="288" viewBox="0 0 288 288" fill="none" xmlns="http://www.w3.org/2000/svg">
<g clip-path="url(#clip0_2_34)">
<path fill-rule="evenodd" clip-rule="evenodd" d="M58 260.092C72.728 266.149 88.871 269.491 105.799 269.491C174.945 269.491 231 213.724 231 144.933C231 76.1411 174.945 20.3745 105.799 20.3745C88.871 20.3745 72.728 23.7166 58 29.7737V117.646C67.4914 101.427 85.2051 90.3745 105.799 90.3745C136.626 90.3745 161 115.141 161 144.933C161 174.725 136.626 199.491 105.799 199.491C85.2051 199.491 67.4914 188.439 58 172.219V260.092Z" fill="#EA3A5A"/>
<path fill-rule="evenodd" clip-rule="evenodd" d="M-33 24.4695C-84.165 40.6046 -121.263 88.4362 -121.263 144.933C-121.263 201.429 -84.165 249.261 -33 265.396V24.4695ZM58 259.606C101.284 239.577 131.313 195.761 131.313 144.933C131.313 94.1039 101.284 50.2886 58 30.2592V259.606Z" fill="#EA3A5A" fill-opacity="0.3"/>
<path fill-rule="evenodd" clip-rule="evenodd" d="M-17 8.33618C-87.3876 10.6911 -143.753 70.7524 -143.753 144.5C-143.753 218.247 -87.3876 278.309 -17 280.664V8.33618ZM58 259.222C94.2927 234.997 118.338 192.668 118.338 144.5C118.338 96.3321 94.2927 54.0028 58 29.7774V259.222Z" fill="#F95573"/>
</g>
<defs>
<clipPath id="clip0_2_34">
<rect width="288" height="288" fill="white"/>
</clipPath>
</defs>
</svg>
