<?xml version="1.0" encoding="utf-8"?>
<!-- Generator: Adobe Illustrator 22.0.0, SVG Export Plug-In . SVG Version: 6.00 Build 0)  -->
<svg version="1.1" id="图层_1" xmlns="http://www.w3.org/2000/svg" xmlns:xlink="http://www.w3.org/1999/xlink" x="0px" y="0px"
	 viewBox="0 0 80 30" style="enable-background:new 0 0 80 30;" xml:space="preserve">
<style type="text/css">
	.st0{fill:#002FA7;}
	.st1{fill:#FFFFFF;}
</style>
<path class="st0" d="M0,0h19c4.4,0,8,3.6,8,8v19H8c-4.4,0-8-3.6-8-8V0z"/>
<path class="st1" d="M19.6,17.6c0,2.3-1.7,3.5-3.3,3.5c-1.7,0-2.9-1.2-2.9-3.2V8.7H9.8v9.7c0,3.7,2.1,5.7,5.1,5.7
	c2.3,0,3.9-1.2,4.6-2.9h0.2V24h3.5V8.7h-3.6V17.6z"/>
<path class="st1" d="M34.4,15.1c0-2.2,1.3-3.5,3.2-3.5c1.9,0,3,1.2,3,3.3V24h3.6v-9.7c0-3.7-2.1-5.7-5.2-5.7c-2.3,0-3.9,1.1-4.6,2.8
	h-0.2V8.7h-3.4V24h3.6V15.1z"/>
<path class="st1" d="M47.9,24h3.6V8.7h-3.6V24z M49.7,6.6c1.1,0,2.1-0.9,2.1-1.9c0-1.1-0.9-2-2.1-2c-1.2,0-2.1,0.9-2.1,2
	C47.6,5.7,48.6,6.6,49.7,6.6z"/>
<path class="st1" d="M62.9,8.7h-3.2V7.5c0-1.2,0.5-1.9,1.8-1.9c0.6,0,1,0.1,1.3,0.2l0.7-2.8c-0.5-0.2-1.5-0.4-2.7-0.4
	c-2.7,0-4.8,1.5-4.8,4.6v1.4h-2.3v2.8h2.3V24h3.6V11.5h3.2V8.7z"/>
<path class="st1" d="M68,29.7c2.8,0,4.4-1.4,5.3-3.9l6.1-17.1l-3.8,0l-3.5,11.5h-0.2L68.4,8.7h-3.8l5.5,15.6l-0.3,0.8
	c-0.7,1.7-1.7,1.9-3.3,1.4l-0.8,2.8C66.1,29.5,67,29.7,68,29.7z"/>
</svg>
