<svg width="160" height="54" viewBox="0 0 160 54" fill="none" xmlns="http://www.w3.org/2000/svg">
<path d="M96.5216 38.0042C86.8609 42.0761 76.4018 44.0721 66.9008 44.0721C52.7691 44.0721 39.1164 40.2398 28.0186 33.7727C27.0605 33.2138 26.342 34.2517 27.1404 34.9703C37.3599 44.1519 50.9328 49.7408 66.0226 49.7408C76.7212 49.7408 89.1763 46.3076 97.799 40.0002C99.1563 38.9623 97.8789 37.3655 96.5216 38.0042Z" fill="#FDC994"/>
<path d="M91.0917 34.4114C90.3731 34.9703 90.5328 35.6889 91.3312 35.609C94.0458 35.2897 100.273 34.5711 101.391 36.0082C102.509 37.4453 100.193 43.1938 99.1556 45.8286C98.8362 46.627 99.5548 46.9463 100.193 46.3875C104.824 42.5551 106.022 34.4114 104.984 33.2936C104.026 31.9364 95.9619 30.9783 91.0917 34.4114Z" fill="#FDC994"/>
<path d="M107.857 24.591C105.222 23.0741 102.108 22.6749 99.2338 22.7547L107.058 11.5771C107.777 10.619 108.176 9.98027 108.176 9.50123V6.62698C108.176 6.06809 107.777 5.82857 107.298 5.82857H92.2079C91.7289 5.82857 91.4095 6.22777 91.4095 6.62698V9.98027C91.4095 10.5392 91.8087 10.7787 92.2877 10.7787H100.192L91.0901 23.7128C90.5312 24.5112 90.5313 25.4693 90.5313 26.0282V29.4613C90.5313 30.0202 91.0901 30.4992 91.5692 30.1799C96.679 27.4653 102.827 27.7048 107.457 30.1799C108.016 30.4992 108.575 29.8605 108.575 29.4613V25.9483C108.575 25.3895 108.415 24.9902 107.857 24.591Z" fill="#FDC994"/>
<path d="M32.0075 30.9782H36.6383C37.1971 30.9782 37.5165 30.579 37.5165 30.1798V17.7247C37.5165 15.0102 37.3568 11.2577 40.7101 11.2577C43.9836 11.2577 43.5045 15.09 43.5045 17.7247V30.1798C43.5045 30.6589 43.9037 30.9782 44.3029 30.9782H48.9337C49.4925 30.9782 49.8119 30.579 49.8119 30.1798V17.7247C49.8119 16.3674 49.7321 14.3714 50.2909 13.1738C50.77 11.9762 51.8878 11.2577 53.0055 11.2577C54.3628 11.2577 55.4007 11.7367 55.6402 13.2537C55.8798 14.2118 55.7999 16.6868 55.7999 17.6449V30.1C55.7999 30.579 56.1991 30.8984 56.5983 30.8984H61.2291C61.7879 30.8984 62.1073 30.4992 62.1073 30.1V15.2497C62.1073 12.6948 62.4267 9.82054 60.9097 7.90437C59.6323 6.14788 57.4766 5.26964 55.6402 5.26964C53.0055 5.26964 50.4506 6.70676 49.3329 9.66086C48.0554 6.70676 46.2989 5.26964 43.4247 5.26964C40.6303 5.26964 38.5544 6.70676 37.4367 9.66086H37.3568V6.62692C37.3568 6.14788 36.9576 5.90836 36.5584 5.82852H32.3269C31.768 5.82852 31.4486 6.22772 31.4486 6.62692V30.1C31.2091 30.579 31.5285 30.8984 32.0075 30.9782Z" fill="#FDC994"/>
<path d="M121.112 5.34936C114.485 5.34936 110.812 11.0979 110.812 18.3633C110.812 25.6288 114.485 31.4571 121.112 31.4571C127.499 31.4571 131.571 25.7086 131.571 18.6028C131.651 11.2575 127.978 5.34936 121.112 5.34936ZM121.112 26.5869C117.519 26.5869 117.519 20.4392 117.519 17.5649C117.519 14.6907 117.759 10.1398 121.112 10.1398C122.629 10.1398 123.587 10.7785 124.066 12.4551C124.625 14.2915 124.705 16.6867 124.705 18.6827C124.864 21.7166 124.705 26.5869 121.112 26.5869Z" fill="#FDC994"/>
<path d="M147.298 5.34936C144.104 5.34936 142.348 6.94616 141.07 10.1398H140.99V6.54696C140.91 6.14776 140.511 5.90824 140.192 5.90824H135.96C135.481 5.90824 135.162 6.30744 135.082 6.6268V30.0999C135.082 30.5789 135.481 30.8983 135.88 30.8983H140.431C140.99 30.8983 141.31 30.4991 141.31 30.0999V17.4851C141.31 15.8883 141.389 14.4512 142.028 13.014C142.587 11.8963 143.625 11.1777 144.663 11.1777C147.857 11.1777 147.537 14.9302 147.537 17.4851V30.2595C147.617 30.6587 147.936 30.9781 148.336 30.9781H152.966C153.445 30.9781 153.765 30.6587 153.845 30.2595V15.4891C153.845 13.1737 153.845 10.0599 152.647 8.22361C151.369 6.06792 149.373 5.34936 147.298 5.34936Z" fill="#FDC994"/>
<path d="M79.5125 15.0899C76.8778 15.4093 73.4447 15.6488 70.8898 16.6867C68.0155 17.9642 66.0195 20.4392 66.0195 24.1917C66.0195 28.9822 68.9736 31.2975 72.8858 31.2975C76.1593 31.2975 77.9157 30.579 80.4706 27.9442C81.269 29.1418 81.5884 29.7007 83.1054 30.9782C83.5046 31.1378 83.8239 31.1378 84.2231 30.8983C85.1014 30.0999 86.8578 28.6628 87.7361 27.8644C88.1353 27.545 88.0555 27.066 87.7361 26.6668C86.9377 25.4692 86.0594 24.5909 86.0594 22.4353V15.3295C86.0594 12.2955 86.299 9.50111 84.0634 7.42527C82.3868 5.74862 79.3529 5.1099 77.1173 5.1099C72.7261 5.1099 67.9357 6.7067 66.8978 12.056C66.8179 12.6149 67.2171 12.9342 67.5365 13.0141L71.8479 13.573C72.3269 13.573 72.5664 13.0939 72.6463 12.7746C73.0455 10.9382 74.5624 10.06 76.3189 10.06C77.277 10.06 78.3149 10.4592 78.9537 11.2576C79.5924 12.2157 79.5125 13.4931 79.5125 14.6109V15.0899ZM78.5545 24.5909C77.8359 25.8684 76.7181 26.6668 75.3608 26.6668C73.6044 26.6668 72.5664 25.3095 72.5664 23.3135C72.5664 19.4013 76.0794 18.6828 79.4327 18.6828V19.6408C79.5125 21.557 79.5125 23.074 78.5545 24.5909Z" fill="#FDC994"/>
<path d="M27.6194 26.6668C26.821 25.4692 25.9427 24.5909 25.9427 22.4353V15.3295C25.9427 12.2955 26.1823 9.50111 23.9467 7.42527C22.1902 5.74862 19.2362 5.1099 17.0006 5.1099C12.6094 5.1099 7.81899 6.7067 6.78106 12.056C6.70122 12.6149 7.10042 12.9342 7.41979 13.0141L11.8908 13.4931C12.3699 13.4931 12.6094 13.0141 12.6892 12.6947C13.0884 10.8584 14.6054 9.98016 16.4417 9.98016C17.3998 9.98016 18.4377 10.3794 19.0765 11.1778C19.7152 12.1358 19.6354 13.4133 19.6354 14.5311V15.0899C16.9208 15.4093 13.4877 15.6488 10.9328 16.6867C8.05851 17.9642 6.0625 20.4392 6.0625 24.1917C6.0625 28.9822 9.01659 31.2975 12.9288 31.2975C16.2022 31.2975 17.9587 30.579 20.5136 27.9442C21.312 29.1418 21.6314 29.7007 23.1483 30.9782C23.5475 31.1378 23.8669 31.1378 24.2661 30.8983C25.1443 30.0999 26.9008 28.6628 27.7791 27.8644C28.0186 27.545 27.9387 27.066 27.6194 26.6668ZM18.6773 24.5909C17.9587 25.8684 16.8409 26.6668 15.4837 26.6668C13.7272 26.6668 12.7691 25.3095 12.7691 23.3135C12.7691 19.4013 16.2821 18.6828 19.6354 18.6828V19.6408C19.4757 21.557 19.5555 23.074 18.6773 24.5909Z" fill="#FDC994"/>
</svg>
