<svg width="81" height="27" viewBox="0 0 81 27" fill="none" xmlns="http://www.w3.org/2000/svg">
<path d="M19.7119 12.7042H14.1657C14.097 12.7042 14.0311 12.7318 13.9825 12.7808C13.9339 12.8298 13.9066 12.8963 13.9066 12.9656V15.7002C13.9066 15.7696 13.9339 15.8361 13.9825 15.8851C14.0311 15.9342 14.097 15.9619 14.1657 15.962H16.3293V19.3594C16.3293 19.3594 15.8435 19.5265 14.5004 19.5265C12.9158 19.5265 10.7022 18.9425 10.7022 14.0337C10.7022 9.12403 13.0072 8.4779 15.1712 8.4779C17.0444 8.4779 17.8513 8.81067 18.3648 8.97074C18.5261 9.02064 18.6754 8.85876 18.6754 8.7142L19.2941 6.07217C19.2941 6.00467 19.2714 5.92318 19.195 5.86788C18.9865 5.71792 17.7143 5 14.5004 5C10.7979 5 7 6.58871 7 14.2251C7 21.8621 11.3483 23 15.0125 23C18.0464 23 19.8868 21.6925 19.8868 21.6925C19.9627 21.6501 19.9709 21.5432 19.9709 21.4942V12.9655C19.9709 12.8213 19.8549 12.7042 19.7119 12.7042ZM48.2945 5.915C48.2947 5.88068 48.2883 5.84664 48.2755 5.81483C48.2627 5.78303 48.2438 5.75409 48.2199 5.72967C48.196 5.70525 48.1675 5.68584 48.1361 5.67255C48.1048 5.65926 48.0711 5.65235 48.037 5.65223H44.9141C44.88 5.65236 44.8463 5.65925 44.8148 5.67253C44.7834 5.6858 44.7548 5.70519 44.7308 5.72959C44.7068 5.75399 44.6878 5.78293 44.6748 5.81474C44.6619 5.84655 44.6553 5.88062 44.6554 5.915L44.6563 12.0011H39.7886V5.915C39.7889 5.88067 39.7824 5.84662 39.7696 5.81481C39.7568 5.78301 39.7378 5.75407 39.7139 5.72965C39.69 5.70524 39.6615 5.68583 39.6301 5.67255C39.5987 5.65926 39.565 5.65236 39.5309 5.65223H36.4083C36.3395 5.65259 36.2737 5.68048 36.2253 5.72976C36.177 5.77903 36.15 5.84567 36.1503 5.915V22.3945C36.1503 22.5397 36.2662 22.6579 36.4083 22.6579H39.5309C39.6737 22.6579 39.7886 22.5396 39.7886 22.3945V15.3455H44.6563L44.6477 22.3945C44.6477 22.5397 44.7637 22.6579 44.9065 22.6579H48.0368C48.1798 22.6579 48.2942 22.5396 48.2945 22.3945V5.915V5.915ZM25.6047 8.07764C25.6047 6.94352 24.7032 6.02713 23.591 6.02713C22.4799 6.02713 21.5776 6.94352 21.5776 8.07764C21.5776 9.21037 22.4799 10.1291 23.591 10.1291C24.7032 10.1291 25.6047 9.21037 25.6047 8.07764ZM25.3814 18.9182V11.3113C25.3816 11.242 25.3545 11.1754 25.3061 11.1261C25.2576 11.0769 25.1918 11.0491 25.123 11.0487H22.0101C21.8673 11.0487 21.7395 11.1973 21.7395 11.3418V22.2401C21.7395 22.5605 21.9374 22.6556 22.1936 22.6556H24.9983C25.306 22.6556 25.3814 22.5031 25.3814 22.2351V18.9182V18.9182ZM60.1624 11.0735H57.0635C56.9214 11.0735 56.8056 11.1916 56.8056 11.337V19.4173C56.8056 19.4173 56.0183 19.9983 54.901 19.9983C53.7837 19.9983 53.4873 19.487 53.4873 18.3837V11.337C53.4873 11.1916 53.3717 11.0735 53.2296 11.0735H50.0843C49.9425 11.0735 49.8261 11.1916 49.8261 11.337V18.9171C49.8261 22.1943 51.6373 22.9961 54.1291 22.9961C56.1731 22.9961 57.821 21.8574 57.821 21.8574C57.821 21.8574 57.8995 22.4574 57.9349 22.5286C57.9705 22.5996 58.063 22.6713 58.1629 22.6713L60.1639 22.6624C60.3057 22.6624 60.4221 22.544 60.4221 22.3993L60.421 11.3371C60.421 11.1916 60.3052 11.0735 60.1624 11.0735V11.0735ZM67.4098 19.9883C66.3349 19.9553 65.6058 19.4633 65.6058 19.4633V14.2448C65.6058 14.2448 66.325 13.8002 67.2075 13.7207C68.3234 13.6199 69.3986 13.9599 69.3986 16.6443C69.3988 19.4753 68.9135 20.0339 67.4098 19.9883V19.9883ZM68.6321 10.7035C66.872 10.7035 65.6748 11.4954 65.6748 11.4954V5.91514C65.6748 5.76962 65.5595 5.65223 65.4172 5.65223H62.2855C62.2515 5.65239 62.2178 5.65932 62.1864 5.67263C62.1549 5.68593 62.1264 5.70534 62.1025 5.72976C62.0785 5.75417 62.0595 5.78311 62.0467 5.81492C62.0338 5.84673 62.0273 5.88078 62.0274 5.91514V22.3945C62.0274 22.5397 62.1432 22.6579 62.2859 22.6579H64.4589C64.5566 22.6579 64.6306 22.6071 64.6853 22.5181C64.7393 22.4295 64.8173 21.7583 64.8173 21.7583C64.8173 21.7583 66.0978 22.9821 68.522 22.9821C71.3679 22.9821 73 21.5263 73 16.4468C73 11.3672 70.3934 10.7035 68.6321 10.7035V10.7035ZM34.3566 11.0473H32.0141L32.0105 7.92629C32.0105 7.80821 31.9502 7.74917 31.8148 7.74917H28.6226C28.4985 7.74917 28.4318 7.80433 28.4318 7.92449V11.1497C28.4318 11.1497 26.8321 11.539 26.724 11.5706C26.67 11.5864 26.6226 11.6194 26.5889 11.6647C26.5551 11.71 26.5369 11.7651 26.5369 11.8218V13.8484C26.5369 13.9942 26.6524 14.1115 26.7952 14.1115H28.4318V18.987C28.4318 22.6085 30.9506 22.9642 32.6504 22.9642C33.427 22.9642 34.356 22.7128 34.5094 22.6555C34.6022 22.6211 34.656 22.5242 34.656 22.4191L34.6586 20.1897C34.6586 20.0442 34.5369 19.9268 34.3997 19.9268C34.2633 19.9268 33.914 19.9828 33.5545 19.9828C32.404 19.9828 32.0141 19.4432 32.0141 18.7449L32.0139 14.1114H34.3566C34.4994 14.1114 34.6149 13.994 34.6149 13.8483V11.3097C34.6151 11.2753 34.6085 11.2413 34.5956 11.2095C34.5827 11.1777 34.5637 11.1488 34.5397 11.1244C34.5157 11.1001 34.4872 11.0807 34.4558 11.0675C34.4243 11.0542 34.3906 11.0474 34.3566 11.0473" fill="#7B878D"/>
</svg>
