<svg width="201" height="67" viewBox="0 0 201 67" fill="none" xmlns="http://www.w3.org/2000/svg">
<g clip-path="url(#clip0)">
<path d="M100.2 66.5001L113.5 25.6001H86.9L100.2 66.5001Z" fill="#2D374B"/>
<path d="M100.2 66.5001L86.9 25.6001H68.3L100.2 66.5001Z" fill="#2D374B" fill-opacity="0.6"/>
<path d="M68.3 25.6001L64.3 38.0001C63.9 39.1001 64.4 40.3001 65.3 41.1001L100.2 66.5001L68.3 25.6001Z" fill="#2D374B" fill-opacity="0.3"/>
<path d="M68.3 25.6001H86.9L78.9 0.900049C78.5 -0.399951 76.7 -0.399951 76.3 0.900049L68.3 25.6001Z" fill="#2D374B"/>
<path d="M100.2 66.5001L113.5 25.6001H132.1L100.2 66.5001Z" fill="#2D374B" fill-opacity="0.6"/>
<path d="M132.1 25.6001L136.1 38.0001C136.5 39.1001 136 40.3001 135.1 41.1001L100.2 66.5001L132.1 25.6001Z" fill="#2D374B" fill-opacity="0.3"/>
<path d="M132.1 25.6001H113.5L121.5 0.900049C121.9 -0.399951 123.7 -0.399951 124.1 0.900049L132.1 25.6001Z" fill="#2D374B"/>
</g>
<defs>
<clipPath id="clip0">
<rect width="201" height="67" fill="white"/>
</clipPath>
</defs>
</svg>
