<svg width="400" height="400" viewBox="0 0 400 400" fill="none" xmlns="http://www.w3.org/2000/svg">
<path d="M331.557 78.5482C331.282 76.5482 329.53 75.4414 328.082 75.3194C326.637 75.1989 296.05 72.9318 296.05 72.9318C296.05 72.9318 274.808 51.8427 272.477 49.5085C270.144 47.1756 265.587 47.8852 263.819 48.4057C263.559 48.4824 259.178 49.8345 251.931 52.077C244.835 31.6578 232.312 12.8934 210.281 12.8934C209.672 12.8934 209.046 12.9181 208.42 12.9537C202.155 4.66738 194.393 1.06738 187.689 1.06738C136.367 1.06738 111.848 65.2249 104.16 97.8277C84.2175 104.007 70.0504 108.4 68.2408 108.969C57.1093 112.461 56.7573 112.811 55.2956 123.3C54.1956 131.241 25.0696 356.487 25.0696 356.487L252.026 399.01L374.998 372.407C374.998 372.407 331.83 80.5482 331.559 78.5482H331.557ZM239.387 55.9564L220.183 61.9003C220.19 60.5468 220.197 59.2153 220.197 57.7592C220.197 45.0688 218.435 34.8509 215.609 26.7509C226.961 28.1756 234.522 41.092 239.387 55.9564ZM201.527 29.2674C204.683 37.1756 206.735 48.5249 206.735 63.84C206.735 64.6235 206.729 65.34 206.722 66.0646C194.233 69.9331 180.661 74.1331 167.06 78.3468C174.697 48.8729 189.012 34.6372 201.527 29.2674V29.2674ZM186.279 14.8331C188.494 14.8331 190.726 15.5852 192.861 17.0551C176.413 24.7948 158.783 44.2879 151.338 83.2153L119.987 92.9249C128.708 63.2331 149.415 14.8331 186.278 14.8331H186.279Z" fill="#95BF46"/>
<path d="M328.082 75.3194C326.637 75.1988 296.05 72.9317 296.05 72.9317C296.05 72.9317 274.808 51.8427 272.476 49.5084C271.604 48.6399 270.427 48.1947 269.197 48.0029L252.037 399.007L374.998 372.407C374.998 372.407 331.828 80.5481 331.557 78.5481C331.282 76.5481 329.53 75.4413 328.082 75.3194" fill="#5E8E3E"/>
<path d="M210.28 143.267L195.117 188.371C195.117 188.371 181.832 181.281 165.548 181.281C141.674 181.281 140.472 196.263 140.472 200.038C140.472 220.638 194.171 228.532 194.171 276.784C194.171 314.747 170.093 339.192 137.627 339.192C98.6682 339.192 78.7449 314.945 78.7449 314.945L89.1764 280.479C89.1764 280.479 109.656 298.062 126.937 298.062C138.228 298.062 142.822 289.171 142.822 282.675C142.822 255.804 98.7668 254.605 98.7668 210.451C98.7668 173.288 125.441 137.325 179.285 137.325C200.031 137.325 210.28 143.267 210.28 143.267" fill="white"/>
</svg>
