<svg xmlns="http://www.w3.org/2000/svg" width="35" height="44" viewBox="0 0 35 44">
    <defs>
        <linearGradient id="a" x1="1.048%" x2="99.408%" y1="50%" y2="50%">
            <stop offset="0%" stop-color="#A83279"/>
            <stop offset="100%" stop-color="#B04167"/>
        </linearGradient>
    </defs>
    <g fill="none" fill-rule="nonzero">
        <path fill="url(#a)" d="M34.9 38.7c0 2.8-2.3 5.1-5.1 5.1H5.1c-2.8 0-5.1-2.3-5.1-5.1V5.2C0 2.4 2.3.1 5.1.1h17.3l.6.2c.2.1.3.2.4.3l10.9 11.1c.2.2.3.4.4.7v.2l.1.5v25.6h.1z"/>
        <path fill="#FFF" d="M8.8 20.3h17.4v2.8H8.8zM8.8 33.2h9.4V36H8.8zM8.8 26.6h17.4v2.8H8.8zM23.6 10.3c0 .8.6 1.4 1.4 1.4h4.3L23.6 6v4.3z"/>
    </g>
</svg>
