<svg xmlns="http://www.w3.org/2000/svg" width="41" height="44" viewBox="0 0 41 44">
    <path fill="#E9F4FF" fill-rule="evenodd" d="M21.752 14.252c.05.339-.217.644-.583.689-.372.044-.716-.195-.76-.533-.084-.544-.228-1.16-.367-1.787-.51-2.198-1.043-4.512.578-5.878 1.681-1.41.987-3.069.294-4.728-.167-.394-.333-.788-.483-1.216-.111-.322.089-.671.444-.771.355-.1.738.078.849.4.122.355.289.754.455 1.148.855 2.048 2.864 4.346.505 6.322-1.054.888-1.748 2.608-1.315 4.473.144.638.288 1.27.383 1.881zm-6.133 0c.05.339-.216.644-.583.689-.372.044-.716-.195-.76-.533-.083-.544-.228-1.16-.366-1.782-.51-2.198-1.044-4.517.577-5.883 1.682-1.41.988-3.069.294-4.728-.16-.394-.333-.788-.477-1.216-.117-.322.083-.671.438-.771.355-.1.738.078.85.4.121.355.293.754.454 1.148.855 2.048 2.542 4.346.19 6.322-1.055.888-1.433 2.608-1.005 4.473.15.644.294 1.27.388 1.881zm-5.605 0c-.095-.605-.239-1.237-.383-1.876-.433-1.864.133-3.835 1.193-4.728 2.353-1.97.477-4.018-.377-6.066A18.852 18.852 0 0 1 9.99.433c-.116-.327-.493-.505-.849-.4-.355.106-.56.45-.444.772.15.427.317.821.483 1.215.694 1.66 1.388 3.32-.3 4.729-1.62 1.365-1.082 3.685-.577 5.883.139.621.283 1.237.361 1.781.05.339.388.577.766.533.366-.05.627-.36.583-.694zm20.806 6.605c12.466-1.898 14.064 13.614-2.036 17.199a17.984 17.984 0 0 1-3.963 5.062 3.357 3.357 0 0 1-2.309.882H8.321a3.335 3.335 0 0 1-2.314-.882A17.835 17.835 0 0 1 .013 29.753v-8.78c0-.188-.006-.372-.012-.56a1.863 1.863 0 0 1 .544-1.404c.377-.389.849-.589 1.393-.589h26.956c.544 0 1.01.2 1.388.589.371.388.56.86.543 1.404-.005.144-.005.294-.005.444zm-.577 13.397c6.799-1.898 10.107-11.882.577-9.8v5.294c0 1.56-.2 3.069-.577 4.506zM9.836 38.112c-1.077-1.06-1.931-2.387-2.509-3.88-.582-1.51-.893-3.202-.893-4.978V22.3a1.362 1.362 0 0 0-2.725 0v6.954c0 2.098.377 4.123 1.088 5.955.721 1.854 1.776 3.502 3.13 4.84a1.365 1.365 0 0 0 1.926-.017 1.374 1.374 0 0 0-.017-1.92z"/>
</svg>
