<svg xmlns="http://www.w3.org/2000/svg" width="50" height="34" viewBox="0 0 50 34">
    <defs>
        <linearGradient id="a" x1="1.048%" x2="99.408%" y1="50%" y2="50%">
            <stop offset="0%" stop-color="#A83279"/>
            <stop offset="100%" stop-color="#B04167"/>
        </linearGradient>
    </defs>
    <path fill="url(#a)" fill-rule="nonzero" d="M29.1.001a2.786 2.786 0 0 0-2.603 2.056l-8.33 28.295a2.875 2.875 0 0 0 .646 2.762 2.75 2.75 0 0 0 2.671.807 2.806 2.806 0 0 0 2.02-1.956l8.329-28.294a2.873 2.873 0 0 0-.44-2.552A2.758 2.758 0 0 0 29.099 0zM13.937 3.538a2.75 2.75 0 0 0-1.952.796L.88 14.944A2.855 2.855 0 0 0 0 17.011c0 .784.319 1.532.88 2.067l11.106 10.61a2.747 2.747 0 0 0 2.71.652 2.817 2.817 0 0 0 1.91-2.067 2.873 2.873 0 0 0-.803-2.718l-8.936-8.533 8.936-8.554a2.867 2.867 0 0 0 .73-3.118 2.778 2.778 0 0 0-2.595-1.812zm22.037 0a2.781 2.781 0 0 0-2.524 1.852 2.866 2.866 0 0 0 .746 3.078l8.936 8.554-8.936 8.533a2.873 2.873 0 0 0-.802 2.718 2.817 2.817 0 0 0 1.908 2.067 2.747 2.747 0 0 0 2.711-.651l11.106-10.61c.561-.536.88-1.284.88-2.068 0-.783-.319-1.532-.88-2.067L38.014 4.334a2.748 2.748 0 0 0-2.039-.796z"/>
</svg>
