<svg xmlns="http://www.w3.org/2000/svg" width="40" height="44" viewBox="0 0 40 44">
    <path fill="#FDEEF4" fill-rule="nonzero" d="M1.785 44a1.785 1.785 0 0 1-1.42-2.864L13.56 23.815l-6.262-3.872a1.783 1.783 0 0 1 .072-3.074L37.32.227a1.783 1.783 0 0 1 2.285 2.638l-13.2 17.322 6.265 3.871a1.783 1.783 0 0 1-.072 3.075L2.649 43.774a1.76 1.76 0 0 1-.864.226zm9.978-25.492l5.347 3.307a1.783 1.783 0 0 1 .481 2.597L8.368 36.517l19.839-11.023-5.349-3.307a1.785 1.785 0 0 1-.48-2.597L31.6 7.485 11.763 18.508z"/>
</svg>
