<svg xmlns="http://www.w3.org/2000/svg" width="33" height="44" viewBox="0 0 33 44">
    <path fill="#D9EDF7" fill-rule="nonzero" d="M30.026 37.726v-3.954c0-4.5-4.032-8.876-7.794-11.978 3.75-3.269 7.794-7.831 7.794-12.312V6.274A3.16 3.16 0 0 0 29.499 0H3.161a3.16 3.16 0 1 0-.527 6.274v3.208c0 4.48 4.043 9.044 7.794 12.312-3.763 3.102-7.794 7.478-7.794 11.978v3.954A3.159 3.159 0 0 0 3.16 44h26.338a3.16 3.16 0 1 0 .527-6.274zm-3.16-1.68l-10.529-7.908-10.543 7.91v-2.276c0-4.76 7.369-10.236 9.78-11.9-2.411-1.786-9.78-7.63-9.78-12.39v-3.16h21.072v3.16c0 4.76-7.368 10.604-9.78 12.39 2.412 1.664 9.78 7.14 9.78 11.9v2.274z"/>
</svg>
