<svg xmlns="http://www.w3.org/2000/svg" width="43" height="43" viewBox="0 0 43 43">
    <defs>
        <linearGradient id="a" x1="1.048%" x2="99.408%" y1="50%" y2="50%">
            <stop offset="0%" stop-color="#A83279"/>
            <stop offset="100%" stop-color="#B04167"/>
        </linearGradient>
    </defs>
    <path fill="url(#a)" fill-rule="nonzero" d="M43 43l-2.702-15.695-7.094-7.093 9.42-9.418L32.19.361l-9.42 9.418-7.725-7.728S9.811-3.18 3.563 3.067l-.5.5c-6.249 6.247-1.001 11.479-1.001 11.479l7.71 7.727L.35 32.191l10.436 10.434 9.42-9.418 7.074 7.077L43 43zm-13.893-9.958l2.777-.245a1 1 0 0 0 .9-.85l.415-2.802 4.503.055.83 4.827-4.502 4.501-5.038-.855.115-4.631zm3.427-5.902L14.4 8.989l1.77-1.771 19.957 19.967-3.592-.045zm-19.55-16.72l18.26 18.255-.326 2.196-2.426.215-18.08-18.096 2.571-2.57zM36.44 38.928l2.502-2.501.555 3.07-3.057-.57zm-9.91-30.08l2.271 2.27 1.416-1.415-2.276-2.27 4.247-4.247 7.604 7.602-8.004 8.003.855.855-8.46-8.453 2.347-2.345zM5.589 5.092c2.887-2.886 5.603-2.68 7.45-1l1.72 1.72-8.955 8.954c-2.902-3.001-2.651-3.026-2.857-4.002-.495-2.326 1.126-4.156 2.642-5.672zm1.616 11.109l1.776-1.796 18.14 18.121-.09 3.472C16.345 25.304 10.481 19.492 7.205 16.2zm3.582 23.593L3.183 32.19l4.247-4.246 2.271 2.27 1.416-1.415-2.271-2.27 2.346-2.346 7.604 7.602-8.01 8.008z"/>
</svg>
