<svg xmlns="http://www.w3.org/2000/svg" xmlns:xlink="http://www.w3.org/1999/xlink" width="92" height="92" viewBox="0 0 92 92">
    <defs>
        <rect id="b" width="56.075" height="56.075" x="11.613" y="11.613" rx="4"/>
        <filter id="a" width="142.8%" height="142.8%" x="-21.4%" y="-21.4%" filterUnits="objectBoundingBox">
            <feOffset in="SourceAlpha" result="shadowOffsetOuter1"/>
            <feGaussianBlur in="shadowOffsetOuter1" result="shadowBlurOuter1" stdDeviation="4"/>
            <feColorMatrix in="shadowBlurOuter1" values="0 0 0 0 0 0 0 0 0 0 0 0 0 0 0 0 0 0 0.25 0"/>
        </filter>
    </defs>
    <g fill="none" fill-rule="evenodd">
        <g transform="rotate(45 35.408 49.893)">
            <use fill="#000" filter="url(#a)" xlink:href="#b"/>
            <use fill="#FFF" xlink:href="#b"/>
        </g>
        <path fill="#337AB7" fill-rule="nonzero" d="M45.763 73.964c.29 0 .56-.15.714-.395l3.364-5.38a.847.847 0 0 0 .129-.446V37.954h3.364a.84.84 0 0 0 .84-.84l.001-2.524a.84.84 0 0 0-.84-.84l-5.048-.001v-9.551c.543-.616.841-1.397.842-2.225 0-.898-.35-1.744-.986-2.379a3.345 3.345 0 0 0-2.379-.985c-.9 0-1.744.35-2.38.985a3.342 3.342 0 0 0-.985 2.38c0 .85.318 1.628.842 2.221V32.908l-.001.84h-5.047a.841.841 0 0 0-.84.842v2.523a.84.84 0 0 0 .84.841h3.365v29.79a.84.84 0 0 0 .128.445l3.365 5.38a.837.837 0 0 0 .712.395zm-.84-44.073l1.681-1.682v.986l-1.681 1.682v-.986zm.841-4.553c.287 0 .57-.037.841-.106v.598l-1.683 1.683V25.23c.27.07.551.107.842.107zm-1.682-3.364c0-.45.175-.872.493-1.19.317-.318.74-.493 1.19-.493.448 0 .87.175 1.189.493.318.318.491.74.492 1.189 0 .45-.175.872-.493 1.19a1.683 1.683 0 0 1-2.871-1.189zm.841 11.283l1.683-1.683v2.175h-1.684l.001-.492zm-5.889 2.174h13.458l.001.841H39.035v-.841zm4.206 32.071V37.954h1.683l-.001 20.71a.843.843 0 0 0 1.683-.001V37.954h1.682v29.549l-2.524 4.034-2.523-4.035z"/>
    </g>
</svg>
