<svg xmlns="http://www.w3.org/2000/svg" width="72" height="32" viewBox="0 0 72 32">
    <defs>
        <linearGradient id="a" x1="1.048%" x2="99.408%" y1="50%" y2="50%">
            <stop offset="0%" stop-color="#A83279"/>
            <stop offset="100%" stop-color="#B04167"/>
        </linearGradient>
    </defs>
    <g fill="url(#a)" fill-rule="nonzero" transform="translate(-146 -634)">
        <path d="M178.8 665.2c0 .48.32.8.8.8h28v-1.6h-28c-.48 0-.8.32-.8.8zM160.72 646h-14c-.4 0-.72.32-.72.64v18.72c0 .32.32.64.72.64h13.76c.4 0 .72-.32.72-.64v-18.88c0-.32-.24-.48-.48-.48zM217.2 650h-8c-.48 0-.8.32-.8.8v14.4c0 .48.32.8.8.8h8c.48 0 .8-.32.8-.8v-14.4c0-.48-.32-.8-.8-.8z"/>
        <path d="M172.8 659.6h7.6V642c0-.48.32-.8.8-.8h7.2v-5.6c0-.88-.72-1.6-1.6-1.6h-31.2c-.88 0-1.6.72-1.6 1.6v9.6h7.2c.48 0 .8.32.8.8v13.6h9.2v4.8H166c-.48 0-.8.32-.8.8 0 .48.32.8.8.8h12v-1.6h-5.2v-4.8z"/>
        <path d="M212.4 649.2v-6.4c0-.48-.32-.8-.8-.8H182c-.48 0-.8.32-.8.8v20c0 .48.32.8.8.8h25.6v-14.4h4.8z"/>
    </g>
</svg>
