<svg xmlns="http://www.w3.org/2000/svg" xmlns:xlink="http://www.w3.org/1999/xlink" width="86" height="86" viewBox="0 0 86 86">
    <defs>
        <linearGradient id="b" x1="50%" x2="50%" y1="-66.708%" y2="100%">
            <stop offset="0%" stop-color="#D38312"/>
            <stop offset="100%" stop-color="#A83279"/>
        </linearGradient>
        <circle id="a" cx="43" cy="43" r="43"/>
        <path id="d" d="M66.29 12.931L56.14 0 43.17 10.353l-8.939-8.036-8.955 9.04-5.233-1.237L3.49 29.463H0v14.333h86.796V29.463h-2.49L69.427 11.97l-3.136.961z"/>
    </defs>
    <g fill="none" fill-rule="evenodd">
        <mask id="c" fill="#fff">
            <use xlink:href="#a"/>
        </mask>
        <use fill="url(#b)" xlink:href="#a"/>
        <g fill="#FFF" fill-rule="nonzero" mask="url(#c)">
            <path d="M42.638 69.342c.352.001.68-.18.866-.478l4.075-6.528c.101-.163.155-.35.155-.542l-.073-36.195 4.088.008a1.018 1.018 0 0 0 1.02-1.02l-.006-3.065a1.026 1.026 0 0 0-1.024-1.024l-6.133-.013-.022-11.604A4.052 4.052 0 0 0 46.6 6.18a4.081 4.081 0 0 0-1.203-2.893 4.081 4.081 0 0 0-2.893-1.204 4.045 4.045 0 0 0-2.889 1.191 4.045 4.045 0 0 0-1.191 2.89 4.084 4.084 0 0 0 1.027 2.701l.013 6.498.001.001.008 4.087.001 1.02-6.132-.01a1.018 1.018 0 0 0-1.02 1.02l.007 3.065c0 .565.46 1.024 1.024 1.024l4.088.01.072 36.194c0 .19.055.38.157.542l4.102 6.543c.186.301.515.482.866.483zm-1.13-53.552l2.04-2.04.003 1.198-2.04 2.04-.002-1.198zm1.012-5.53c.35 0 .693-.043 1.022-.127l.001.727-2.04 2.04-.005-2.772c.327.085.67.13 1.022.132zm-2.052-4.092a2.022 2.022 0 0 1 .596-1.445 2.023 2.023 0 0 1 1.444-.595c.545 0 1.06.214 1.447.6.387.388.599.901.6 1.447.002.546-.21 1.06-.595 1.444a2.022 2.022 0 0 1-1.444.596 2.054 2.054 0 0 1-2.048-2.047zm1.05 13.711l2.04-2.04.005 2.643-2.045-.005v-.598zm-7.15 2.627l6.133.013 10.22.02.002 1.023-4.088-.009-8.176-.016-4.089-.009-.002-1.022zm5.188 38.979l-.072-35.902 2.045.005.05 25.161c.001.564.46 1.022 1.023 1.024.566 0 1.023-.457 1.021-1.02l-.05-25.162 2.043.004.072 35.903-3.056 4.895-3.076-4.908z"/>
            <path d="M43.237 6.896a1.022 1.022 0 0 0-.004-1.446c-.4-.4-1.047-.402-1.445-.003a1.023 1.023 0 0 0 .003 1.446c.4.4 1.047.401 1.446.003z"/>
        </g>
        <g mask="url(#c)">
            <g transform="translate(-.796 44.687)">
                <mask id="e" fill="#fff">
                    <use xlink:href="#d"/>
                </mask>
                <use fill="#FFF" xlink:href="#d"/>
                <path fill="#F1E1E6" d="M49.358 5.645L52.5 8.078l2.59-2.115 2.186 1.642 1.857-1.642 2.453.613-5.156-6.609zM25.496 11.277l4.572-1.625 2.616 2.788 3.203-2.97 2.98 1.964L41.58 8.62l-7.082-6.393z" mask="url(#e)"/>
            </g>
        </g>
    </g>
</svg>
